<?xml  version="1.0" encoding="UTF-8"?>
<!DOCTYPE svg PUBLIC "-//W3C//DTD SVG 1.0//EN" "http://www.w3.org/TR/2001/REC-SVG-20010904/DTD/svg10.dtd" >
<svg xmlns="http://www.w3.org/2000/svg" >
<metadata>
<version>1.0</version>
<id><![CDATA[Proxima N W01 At Thin It]]></id>
<vendor>Monotype Imaging Inc.</vendor>
<credits>
<name>Fonts.com WebFonts</name>
<URL>http://webfonts.fonts.com</URL>
<role>Home of the Web fonts</role>
</credits>
<license>
<URL>http://webfonts.fonts.com/Legal</URL>
</license>
<copyright><![CDATA[Copyright (c) Mark Simonson, 2005. All rights reserved.]]></copyright>
<trademark><![CDATA[Proxima Nova is a trademark of Mark Simonson.]]></trademark>
<licensee>
<name></name>
</licensee>
</metadata>
<defs >
<font horiz-adv-x="493" id="140a0bc7-7f49-41e5-ad89-669b8d323917">
<font-face font-family="" panose-1="2 0 5 6 3 0 0 2 0 4" ascent="741" descent="-259" units-per-em="1000" alphabetic="0">
</font-face>
<missing-glyph horiz-adv-x="0" />

<glyph unicode="&#xA;" />
<glyph unicode="&#xD;" horiz-adv-x="0" />
<glyph unicode=" " horiz-adv-x="260" />
<glyph unicode="!" horiz-adv-x="208" d="M75 161L176 667H218L95 161H75ZM52 -9Q39 -9 31 -1T22 21Q22 36 32 46T58 56Q71 56 79 48T88 26Q88 11 78 1T52 -9Z"  />
<glyph unicode="&quot;" horiz-adv-x="290" d="M119 443Q127 496 133 539Q136 557 138 575T143 607T147 632T149 644Q151 659 158 668T180 677Q190 677 196 671T203 653Q203 649 202 644T199 636L140 443H119ZM235 443Q243 496 249 539Q252 557 254 575T259 607T263 632T265 644Q267 659 274 668T296 677Q306 677 312 671T319 653Q319 649 318 644T315 636L256 443H235Z"  />
<glyph unicode="#" horiz-adv-x="567" d="M180 0L287 191H162L56 0H23L129 191H14L29 220H145L272 447H155L169 476H288L393 667H426L321 476H445L550 667H583L477 476H592L579 447H462L334 220H454L439 191H319L213 0H180ZM429 447H305L178 220H301L429 447Z"  />
<glyph unicode="$" horiz-adv-x="575" d="M273 -12Q267 -12 261 -12T250 -11L230 -100H198L218 -7Q153 3 104 33T31 103L60 124Q88 83 129 57T225 22L295 335Q263 348 233 363T180 397T143 442T128 502Q128 539 145 571T192 627T260 664T343 678Q350 678 356 678T370 677L391 768H423L402 673Q457 663 498 637T562 575L533 554Q510 591 474 613T395 643L332 358Q363 344 393 329T447 293T485 246T500 184Q500 149 486 114T444 51T373 6T273 -12ZM464 184Q464 211 453 231T422 268T377 298T324 323L256 18H276Q326 18 361 33T420 73T453 126T464 184ZM164 502Q164 477 175 458T206 424T250 396T303 371L364 647Q359 647 354 647T343 648Q305 648 273 636T216 603T178 557T164 502Z"  />
<glyph unicode="%" horiz-adv-x="709" d="M73 0L646 667H683L109 0H73ZM483 -12Q453 -12 428 -3T384 24T354 66T343 120Q343 163 357 199T396 260T451 300T515 314Q545 314 570 305T614 278T644 236T655 182Q655 138 641 103T602 42T547 2T483 -12ZM484 15Q511 15 536 27T580 62T610 114T622 179Q622 226 592 256T514 287Q487 287 462 275T418 240T388 188T376 123Q376 76 406 46T484 15ZM232 351Q202 351 177 360T133 387T103 429T92 483Q92 526 106 562T145 623T200 663T264 677Q294 677 319 668T363 641T393 599T404 545Q404 501 390 466T351 405T296 365T232 351ZM233 378Q260 378 285 390T329 425T359 477T371 542Q371 589 341 619T263 650Q236 650 211 638T167 603T137 551T125 486Q125 439 155 409T233 378Z"  />
<glyph unicode="&amp;" horiz-adv-x="637" d="M466 0Q439 31 408 75Q367 37 319 13T213 -12Q174 -12 140 -2T81 29T41 79T26 147Q26 196 43 231T88 294T152 340T226 377Q212 409 205 439T198 501Q198 537 212 569T249 625T303 663T366 677Q421 677 456 650T492 571Q492 527 473 496T423 442T352 400T271 364Q284 335 300 306T335 248Q356 213 374 184T413 127Q435 150 453 174T487 220T513 261T532 293L561 278Q537 238 506 191T434 100Q451 77 470 53T514 0H466ZM213 18Q261 18 306 42T389 103Q363 138 342 171T307 226Q286 261 269 291T238 350Q203 335 171 317T115 276T77 222T62 152Q62 118 74 93T108 52T156 27T213 18ZM233 501Q233 476 240 448T259 391Q297 407 332 423T395 459T439 505T456 568Q456 607 429 627T366 647Q344 647 321 638T278 610T246 564T233 501Z"  />
<glyph unicode="&apos;" horiz-adv-x="176" d="M119 443Q127 496 133 539Q136 557 138 575T143 607T147 632T149 644Q151 659 158 668T180 677Q190 677 196 671T203 653Q203 649 202 644T199 636L140 443H119Z"  />
<glyph unicode="(" horiz-adv-x="206" d="M75 -199Q53 -139 40 -71T26 77Q26 233 87 385T270 685L284 672Q231 599 190 526T119 377T74 221T58 56Q58 -1 68 -65T94 -189L75 -199Z"  />
<glyph unicode=")" horiz-adv-x="206" d="M130 685Q152 625 165 557T179 409Q179 253 118 101T-65 -199L-79 -186Q-27 -113 15 -40T86 109T131 264T147 430Q147 487 137 551T111 675L130 685Z"  />
<glyph unicode="*" horiz-adv-x="330" d="M185 409L218 529L104 476L95 503L213 545L120 609L140 633L225 559L245 677H276L243 557L357 610L366 583L249 541L341 477L321 453L236 527L216 409H185Z"  />
<glyph unicode="+" horiz-adv-x="494" d="M280 322L231 100H199L248 322H46L53 352H255L302 568H334L287 352H489L482 322H280Z"  />
<glyph unicode="&#x2c;" horiz-adv-x="208" d="M89 18Q89 -1 82 -20T61 -57T32 -88T0 -112L-18 -92Q10 -77 29 -54T54 -8H48Q37 -8 30 0T22 20Q22 35 32 45T57 56Q71 56 80 47T89 18Z"  />
<glyph unicode="-" horiz-adv-x="300" d="M26 227L32 257H272L266 227H26Z"  />
<glyph unicode="." horiz-adv-x="208" d="M52 -9Q39 -9 31 -1T22 21Q22 36 32 46T58 56Q71 56 79 48T88 26Q88 11 78 1T52 -9Z"  />
<glyph unicode="/" horiz-adv-x="268" d="M-59 -20L334 687H367L-27 -20H-59Z"  />
<glyph unicode="0" horiz-adv-x="605" d="M273 -12Q222 -12 184 6T121 58T84 138T72 240Q72 287 81 337T107 436T149 529T208 605T283 657T372 677Q423 677 460 659T522 607T559 528T571 426Q571 355 552 278T495 137T401 30T273 -12ZM275 18Q336 18 384 57T467 156T519 289T537 429Q537 475 528 515T499 584T447 630T369 647Q328 647 293 629T229 581T177 509T138 423T114 329T106 237Q106 191 115 151T144 82T197 35T275 18Z"  />
<glyph unicode="1" horiz-adv-x="277" d="M103 0L240 621L110 506L93 529L252 667H282L135 0H103Z"  />
<glyph unicode="2" horiz-adv-x="577" d="M5 0L14 38Q110 101 198 163T355 285T463 403T504 519Q504 580 458 613T340 647Q282 647 239 629T165 578L143 599Q175 634 227 655T340 677Q378 677 414 668T477 640T522 591T539 519Q539 456 497 394T387 271T233 149T58 30H432L426 0H5Z"  />
<glyph unicode="3" horiz-adv-x="531" d="M229 -12Q190 -12 154 -2T87 27T36 71T5 127L36 140Q56 84 108 51T229 18Q273 18 309 31T370 69T408 126T422 198Q422 228 409 252T374 294T320 320T252 330Q232 330 221 330T202 329L210 361Q213 361 223 361T247 360T273 360T298 360Q333 360 366 369T426 398T468 446T484 514Q484 541 472 565T438 608T384 636T313 647Q270 647 226 631T139 572L118 595Q155 633 207 655T313 677Q355 677 392 667T456 635T499 584T515 514Q515 472 499 440T456 386T398 352T334 338Q358 333 379 321T417 291T444 250T454 198Q454 156 439 118T394 51T323 5T229 -12Z"  />
<glyph unicode="4" horiz-adv-x="524" d="M299 0L342 195H27L35 230L434 667H478L380 225H481L475 195H374L331 0H299ZM438 631L68 225H348L438 631Z"  />
<glyph unicode="5" horiz-adv-x="574" d="M264 -12Q181 -12 130 22T49 125L79 141Q105 75 152 47T269 18Q309 18 345 33T410 76T454 141T471 222Q471 260 458 289T422 339T367 369T299 380Q257 380 220 366T146 326L124 344L195 667H559L553 637H221L160 363Q181 380 220 395T306 410Q345 410 380 398T443 363T487 305T504 223Q504 176 487 134T437 59T361 7T264 -12Z"  />
<glyph unicode="6" horiz-adv-x="577" d="M267 -12Q169 -12 119 49T68 223Q68 264 75 313T97 413T137 511T194 595T272 654T371 677Q438 677 484 649T553 569L524 551Q507 596 468 621T369 647Q310 647 267 618T192 541T140 437T108 323Q105 309 105 307Q118 322 140 339T189 372T248 396T313 406Q356 406 392 395T454 361T494 308T508 237Q508 188 490 143T440 64T364 9T267 -12ZM270 18Q315 18 352 36T417 84T459 152T475 232Q475 299 430 337T309 376Q249 376 196 346T100 266Q99 258 99 238T98 207Q98 166 108 132T140 72T194 32T270 18Z"  />
<glyph unicode="7" horiz-adv-x="489" d="M68 0L500 637H123L129 667H546L541 645L106 0H68Z"  />
<glyph unicode="8" horiz-adv-x="561" d="M260 -12Q213 -12 173 -1T105 30T60 81T44 151Q44 192 60 225T106 284T174 325T260 349Q237 357 215 370T173 401T143 442T131 495Q131 541 150 575T201 632T270 666T346 677Q386 677 422 666T487 635T531 585T547 519Q547 480 532 450T489 397T425 360T344 340Q364 332 388 319T432 286T467 239T481 177Q481 137 464 103T417 43T347 3T260 -12ZM306 359Q350 363 388 374T453 406T497 454T513 519Q513 546 500 569T464 609T411 636T345 646Q310 646 277 636T219 607T179 560T164 496Q164 469 178 447T213 406T259 376T306 359ZM259 18Q294 18 328 28T389 59T432 110T449 178Q449 209 434 234T397 279T348 311T300 330Q252 327 212 313T141 276T94 223T77 156Q77 122 92 96T132 53T190 27T259 18Z"  />
<glyph unicode="9" horiz-adv-x="577" d="M348 678Q446 678 496 617T547 443Q547 402 540 353T518 253T478 155T421 71T343 12T244 -11Q177 -11 131 17T62 97L91 115Q108 70 147 45T246 19Q305 19 348 48T423 125T475 229T507 343Q510 356 510 359Q496 344 475 327T426 294T367 270T302 260Q258 260 223 271T161 304T121 357T107 429Q107 478 125 523T175 602T251 657T348 678ZM345 648Q300 648 263 630T198 582T156 514T140 434Q140 367 185 329T306 290Q366 290 419 320T515 400Q516 408 516 428T517 459Q517 500 507 534T475 594T421 634T345 648Z"  />
<glyph unicode=":" horiz-adv-x="208" d="M52 -9Q39 -9 31 -1T22 21Q22 36 32 46T58 56Q71 56 79 48T88 26Q88 11 78 1T52 -9ZM148 425Q135 425 127 433T118 455Q118 470 128 480T154 490Q167 490 175 482T184 460Q184 445 174 435T148 425Z"  />
<glyph unicode=";" horiz-adv-x="208" d="M89 18Q89 -1 82 -20T61 -57T32 -88T0 -112L-18 -92Q10 -77 29 -54T54 -8H48Q37 -8 30 0T22 20Q22 35 32 45T57 56Q71 56 80 47T89 18ZM148 425Q135 425 127 433T118 455Q118 470 128 480T154 490Q167 490 175 482T184 460Q184 445 174 435T148 425Z"  />
<glyph unicode="&lt;" horiz-adv-x="494" d="M46 324L51 345L539 580L530 542L89 332L437 124L430 90L46 324Z"  />
<glyph unicode="=" horiz-adv-x="494" d="M67 418L74 448H510L503 418H67ZM23 220L30 250H466L459 220H23Z"  />
<glyph unicode="&gt;" horiz-adv-x="494" d="M-6 90L3 128L445 336L96 546L103 580L487 345L482 324L-6 90Z"  />
<glyph unicode="?" horiz-adv-x="467" d="M208 168Q179 201 179 240Q179 276 199 300T250 343T316 378T382 415T432 463T453 532Q453 583 412 615T297 647Q243 647 198 627T116 568L98 589Q143 635 191 656T297 677Q341 677 376 666T437 636T475 590T489 532Q489 487 469 457T417 403T350 363T282 329T231 290T210 240Q210 229 214 216T232 191L208 168ZM170 -9Q157 -9 149 -1T140 21Q140 36 150 46T176 56Q189 56 197 48T206 26Q206 11 196 1T170 -9Z"  />
<glyph unicode="@" horiz-adv-x="783" d="M372 -70Q304 -70 246 -46T146 20T79 120T55 244Q55 326 88 397T175 522T302 607T452 638Q522 638 580 613T679 543T744 440T767 311Q767 256 755 214T722 144T674 100T616 85Q576 85 553 111T530 173V179Q517 161 499 144T458 114T411 93T359 85Q291 85 249 127T207 243Q207 297 228 344T283 425T361 480T450 500Q502 500 534 474T581 413L595 482H625L563 188Q562 183 562 179T562 170Q562 143 578 128T616 112Q631 112 651 121T691 152T724 214T738 312Q738 375 717 429T658 523T566 585T449 608Q375 608 309 578T193 497T114 381T85 245Q85 184 106 132T167 42T259 -19T376 -41Q432 -41 477 -26T564 16L580 -7Q533 -37 481 -53T372 -70ZM359 112Q390 112 417 122T466 148T507 183T539 223L573 380Q568 395 559 411T534 441T498 464T450 473Q406 473 368 454T302 402T257 328T240 243Q240 186 271 149T359 112Z"  />
<glyph unicode="A" horiz-adv-x="636" d="M526 0L491 179H119L6 0H-33L392 667H430L561 0H526ZM405 630L138 209H486L405 630Z"  />
<glyph unicode="B" horiz-adv-x="600" d="M34 0L181 667H418Q449 667 477 657T528 628T564 582T578 519Q578 482 566 451T532 395T482 356T422 337Q442 332 460 319T491 286T512 245T520 198Q520 159 506 124T464 61T394 17T296 0H34ZM375 358Q421 358 453 372T505 410T533 461T542 519Q542 544 532 565T505 603T463 628T412 637H207L145 358H375ZM302 30Q347 30 381 44T438 82T473 136T485 198Q485 253 450 290T349 328H138L72 30H302Z"  />
<glyph unicode="C" horiz-adv-x="667" d="M365 -12Q300 -12 247 8T155 66T96 156T74 274Q74 366 105 440T188 568T304 649T438 678Q516 678 582 647T690 549L660 530Q621 595 562 621T435 648Q375 648 317 623T213 549T139 431T110 274Q110 216 128 169T179 88T260 36T367 18Q418 18 466 35T565 94L585 71Q536 29 480 9T365 -12Z"  />
<glyph unicode="D" horiz-adv-x="684" d="M34 0L181 667H374Q430 667 478 646T563 586T619 497T640 384Q640 314 614 245T537 122T409 34T231 0H34ZM236 30Q321 30 389 58T506 135T580 248T606 384Q606 439 588 485T538 565T463 618T368 637H207L72 30H238H236Z"  />
<glyph unicode="E" horiz-adv-x="558" d="M34 0L181 667H589L583 637H207L145 358H514L507 328H138L72 30H448L442 0H34Z"  />
<glyph unicode="F" horiz-adv-x="533" d="M34 0L181 667H589L583 637H207L145 358H514L507 328H138L66 0H34Z"  />
<glyph unicode="G" horiz-adv-x="708" d="M355 -12Q292 -12 241 8T152 66T95 156T74 274Q74 365 105 439T189 567T308 649T448 678Q524 678 587 646T690 549L663 532Q645 562 621 584T568 620T507 641T441 648Q382 648 323 623T217 549T140 432T110 274Q110 214 128 167T179 86T258 36T361 18Q426 18 477 39T568 98T634 185T676 290H345L351 320H715Q699 245 669 184T594 80T490 12T355 -12Z"  />
<glyph unicode="H" horiz-adv-x="695" d="M521 0L593 328H138L66 0H34L181 667H213L145 358H600L668 667H700L553 0H521Z"  />
<glyph unicode="I" horiz-adv-x="208" d="M34 0L181 667H213L66 0H34Z"  />
<glyph unicode="J" horiz-adv-x="465" d="M153 -12Q96 -12 52 11T-16 80L11 100Q31 61 66 40T153 18Q227 18 271 64T332 185L438 667H470L364 185Q341 85 286 37T153 -12Z"  />
<glyph unicode="K" horiz-adv-x="571" d="M447 0L221 331L119 241L66 0H34L181 667H213L129 287L557 667H603L243 348L486 0H447Z"  />
<glyph unicode="L" horiz-adv-x="475" d="M18 0L165 667H197L56 30H391L385 0H18Z"  />
<glyph unicode="M" horiz-adv-x="770" d="M596 0L735 629L336 0H326L205 629L66 0H34L181 667H230L344 70L722 667H775L628 0H596Z"  />
<glyph unicode="N" horiz-adv-x="690" d="M516 0L203 619L66 0H34L181 667H213L527 54L663 667H695L548 0H516Z"  />
<glyph unicode="O" horiz-adv-x="764" d="M365 -12Q305 -12 252 6T160 61T97 150T74 274Q74 359 103 433T181 561T297 647T438 678Q498 678 551 660T643 605T706 516T729 392Q729 306 700 233T622 105T506 19T365 -12ZM367 18Q431 18 490 45T594 122T666 240T693 392Q693 455 672 503T616 583T534 632T435 648Q370 648 312 621T208 544T137 425T110 274Q110 211 130 163T186 83T268 34T367 18Z"  />
<glyph unicode="P" horiz-adv-x="555" d="M34 0L181 667H400Q436 667 466 654T519 619T553 567T566 505Q566 466 553 428T510 358T435 308T327 289H130L66 0H34ZM332 319Q383 319 420 334T482 375T519 435T531 505Q531 531 521 555T492 597T450 626T396 637H207L136 319H334H332Z"  />
<glyph unicode="Q" horiz-adv-x="764" d="M365 -12Q305 -12 252 6T160 61T97 150T74 274Q74 359 103 433T181 561T297 647T438 678Q498 678 551 660T643 605T706 516T729 392Q729 286 687 200T573 60L622 -2L596 -23L546 41Q505 15 460 2T365 -12ZM367 18Q453 18 527 66L432 188L458 209L554 85Q616 135 654 213T693 392Q693 455 672 503T616 583T534 632T435 648Q370 648 312 621T208 544T137 425T110 274Q110 211 130 163T186 83T268 34T367 18Z"  />
<glyph unicode="R" horiz-adv-x="579" d="M433 0L293 288H129L66 0H34L181 667H393Q425 667 456 657T512 625T552 574T567 505Q567 458 551 419T503 350T427 305T327 288L470 0H433ZM334 318Q382 318 419 333T481 374T518 434T531 505Q531 534 519 558T488 600T444 627T393 637H207L136 318H331H334Z"  />
<glyph unicode="S" horiz-adv-x="575" d="M273 -12Q232 -12 194 -3T125 21T69 58T31 103L60 124Q95 74 149 46T276 18Q326 18 361 33T420 73T453 126T464 184Q464 225 439 251T377 298T296 335T215 374T153 426T128 502Q128 539 145 571T192 627T260 664T343 678Q418 678 476 650T562 575L533 554Q503 602 452 625T343 648Q305 648 273 636T216 603T178 557T164 502Q164 465 189 440T251 396T332 359T413 318T475 263T500 184Q500 149 486 114T444 51T373 6T273 -12Z"  />
<glyph unicode="T" horiz-adv-x="559" d="M209 0L350 637H125L131 667H614L608 637H382L241 0H209Z"  />
<glyph unicode="U" horiz-adv-x="672" d="M319 -12Q266 -12 223 2T149 44T102 111T85 200Q85 218 86 231T90 253L181 667H213L122 253Q120 247 118 234T116 204Q116 120 169 69T319 18Q371 18 410 34T476 80T523 153T554 253L645 667H677L586 253Q572 191 552 142T500 59T424 6T319 -12Z"  />
<glyph unicode="V" horiz-adv-x="636" d="M245 0L114 667H149L270 37L669 667H708L283 0H245Z"  />
<glyph unicode="W" horiz-adv-x="852" d="M545 0L506 607L199 0H161L118 667H152L189 48L501 667H535L573 48L884 667H920L583 0H545Z"  />
<glyph unicode="X" horiz-adv-x="638" d="M522 0L338 321L18 0H-29L320 345L133 667H171L343 365L643 667H691L361 340L559 0H522Z"  />
<glyph unicode="Y" horiz-adv-x="610" d="M235 0L299 289L114 667H151L318 321L637 667H682L331 289L267 0H235Z"  />
<glyph unicode="Z" horiz-adv-x="578" d="M-1 0L5 30L563 637H140L146 667H611L605 637L46 30H477L471 0H-1Z"  />
<glyph unicode="[" horiz-adv-x="212" d="M-62 -190L130 678H291L284 648H153L-26 -160H105L98 -190H-62Z"  />
<glyph unicode="\" horiz-adv-x="268" d="M98 687H129L209 -20H178L98 687Z"  />
<glyph unicode="]" horiz-adv-x="212" d="M-79 -190L-72 -160H58L237 648H106L113 678H274L81 -190H-79Z"  />
<glyph unicode="^" horiz-adv-x="424" d="M392 333L301 640L74 333H38L292 667H318L424 333H392Z"  />
<glyph unicode="_" horiz-adv-x="564" d="M-72 -70L-65 -40H504L497 -70H-72Z"  />
<glyph unicode="`" horiz-adv-x="205" d="M244 556L101 700H146L274 556H244Z"  />
<glyph unicode="a" horiz-adv-x="514" d="M346 0L358 55Q323 22 287 5T203 -12Q171 -12 142 -4T89 22T52 65T38 128Q38 171 53 205T93 262T151 297T220 310Q283 310 325 290T397 231L420 334Q421 337 422 348T423 368Q423 412 386 440T283 468Q237 468 199 449T133 401L114 423Q193 495 284 495Q319 495 350 488T404 465T440 426T454 371Q454 361 453 350T449 331L376 0H346ZM208 15Q256 15 294 33T365 87L392 205Q369 245 324 264T225 283Q191 283 163 272T115 240T83 191T72 131Q72 73 111 44T208 15Z"  />
<glyph unicode="b" horiz-adv-x="566" d="M261 -12Q198 -12 152 16T81 87L62 0H32L179 667H209L152 406Q181 445 225 470T324 495Q366 495 400 482T460 443T500 380T514 297Q514 234 496 178T444 80T364 13T261 -12ZM261 15Q311 15 351 39T420 102T464 191T480 293Q480 374 437 421T322 468Q294 468 268 460T218 437T175 404T142 364L87 113Q106 73 151 44T261 15Z"  />
<glyph unicode="c" d="M260 -12Q216 -12 178 1T111 42T67 108T51 200Q51 260 71 313T127 407T211 471T315 495Q431 495 482 409L458 392Q435 432 398 450T318 468Q263 468 220 445T146 384T100 298T84 197Q84 152 97 118T135 61T191 27T262 15Q306 15 341 33T402 81L421 60Q388 26 350 7T260 -12Z"  />
<glyph unicode="d" horiz-adv-x="566" d="M304 495Q367 495 413 467T484 396L544 667H574L426 0H396L413 77Q384 38 340 13T241 -12Q199 -12 165 1T105 40T65 102T51 186Q51 249 69 305T121 403T201 470T304 495ZM304 468Q254 468 214 444T145 381T101 292T85 190Q85 109 128 62T243 15Q271 15 297 23T347 46T390 79T423 119L478 370Q459 410 414 439T304 468Z"  />
<glyph unicode="e" horiz-adv-x="571" d="M275 -12Q221 -12 180 4T110 48T66 115T51 200Q51 261 72 314T129 408T213 471T316 495Q365 495 402 479T465 434T504 368T517 288Q517 274 515 258T510 232H87Q86 227 86 218T85 200Q85 161 97 127T133 69T192 30T275 15Q313 15 353 29T428 72L443 50Q411 24 367 6T275 -12ZM485 259Q486 264 486 272T487 285Q487 366 441 417T311 468Q271 468 235 451T168 406T118 339T90 259H482H485Z"  />
<glyph unicode="f" horiz-adv-x="246" d="M46 0L147 456H67L73 483H153L164 534Q179 602 213 639T304 677Q324 677 339 673T371 658L355 633Q343 643 329 646T301 650Q255 650 231 620T194 534L183 483H281L275 456H177L76 0H46Z"  />
<glyph unicode="g" horiz-adv-x="566" d="M212 -196Q146 -196 96 -180T11 -115L37 -92Q63 -133 106 -151T212 -169Q243 -169 271 -160T324 -131T366 -80T395 -3L412 77Q382 38 337 13T234 -12Q195 -12 162 0T103 38T64 102T50 191Q50 250 67 305T118 402T197 469T302 495Q329 495 355 488T406 467T449 435T483 396L503 483H533L425 -3Q413 -55 393 -91T346 -151T285 -185T212 -196ZM240 15Q265 15 291 23T340 44T384 74T420 111L478 370Q466 392 448 410T405 441T354 461T299 468Q248 468 208 444T141 380T98 291T83 192Q83 108 125 62T240 15Z"  />
<glyph unicode="h" horiz-adv-x="528" d="M358 0L433 339Q435 346 437 357T439 376Q439 425 407 446T324 468Q299 468 275 460T227 439T183 409T145 374L62 0H32L179 667H209L152 407Q169 423 189 439T233 467T280 487T330 495Q360 495 385 488T428 467T457 431T468 379Q468 373 466 359T462 337L388 0H358Z"  />
<glyph unicode="i" horiz-adv-x="202" d="M175 566Q164 566 156 573T148 592Q148 606 159 615T181 624Q192 624 200 617T208 598Q208 584 197 575T175 566ZM32 0L139 483H169L62 0H32Z"  />
<glyph unicode="j" horiz-adv-x="202" d="M-80 -196Q-110 -196 -136 -186T-179 -153L-156 -130Q-145 -146 -126 -157T-83 -169Q-46 -169 -21 -148T15 -76L139 483H169L45 -76Q31 -139 1 -167T-80 -196ZM175 566Q164 566 156 573T148 592Q148 606 159 615T181 624Q192 624 200 617T208 598Q208 584 197 575T175 566Z"  />
<glyph unicode="k" horiz-adv-x="496" d="M380 0L219 246L95 151L62 0H32L179 667H209L104 192L481 483H527L243 265L417 0H380Z"  />
<glyph unicode="l" horiz-adv-x="243" d="M129 -12Q94 -12 71 4T47 53Q47 63 47 70T50 85L179 667H209L80 85Q78 77 78 72T77 59Q77 36 91 26T128 15Q144 15 158 21T183 36L195 12Q183 2 167 -5T129 -12Z"  />
<glyph unicode="m" horiz-adv-x="770" d="M600 0L677 348Q678 351 679 359T681 376Q681 421 653 444T587 468Q567 468 546 461T503 440T463 410T429 375L346 0H316L393 348Q395 360 396 366T397 383Q397 419 373 443T302 468Q282 468 261 461T220 440T180 410T145 375L62 0H32L139 483H169L152 407Q162 419 178 434T214 462T258 485T308 495Q337 495 359 486T396 462T418 431T426 398V396Q441 414 459 432T499 464T544 486T593 495Q616 495 637 488T675 466T700 429T710 379Q710 371 708 360T704 337L630 0H600Z"  />
<glyph unicode="n" horiz-adv-x="528" d="M358 0L433 338Q435 346 437 356T439 376Q439 425 407 446T324 468Q299 468 275 460T227 440T183 410T145 375L62 0H32L139 483H169L152 407Q169 423 189 439T233 467T280 487T330 495Q360 495 385 488T428 467T457 431T468 379Q468 371 466 359T462 337L388 0H358Z"  />
<glyph unicode="o" horiz-adv-x="570" d="M256 -12Q210 -12 172 2T107 44T66 111T51 198Q51 256 71 309T126 404T208 470T312 495Q358 495 396 481T461 439T502 372T517 285Q517 227 497 174T442 79T360 13T256 -12ZM256 15Q305 15 346 38T418 98T466 185T483 285Q483 368 438 418T312 468Q263 468 222 445T150 385T102 298T85 198Q85 115 130 65T256 15Z"  />
<glyph unicode="p" horiz-adv-x="562" d="M261 -12Q198 -12 152 16T81 87L21 -184H-9L139 483H169L152 406Q181 445 225 470T324 495Q366 495 400 482T460 443T500 380T514 297Q514 234 496 178T444 80T364 13T261 -12ZM261 15Q311 15 351 39T420 102T464 191T480 293Q480 374 437 421T322 468Q294 468 268 460T218 437T175 404T142 364L87 113Q106 73 151 44T261 15Z"  />
<glyph unicode="q" horiz-adv-x="562" d="M304 495Q367 495 413 467T484 396L503 483H533L385 -184H355L413 77Q384 38 340 13T241 -12Q199 -12 165 1T105 40T65 102T51 186Q51 249 69 305T121 403T201 470T304 495ZM304 468Q254 468 214 444T145 381T101 292T85 190Q85 109 128 62T243 15Q271 15 297 23T347 46T390 79T423 119L478 370Q459 410 414 439T304 468Z"  />
<glyph unicode="r" horiz-adv-x="304" d="M32 0L139 483H169L150 401Q169 424 188 441T229 469T277 486T337 492L329 457Q319 459 298 459Q274 459 252 451T209 429T171 398T142 362L62 0H32Z"  />
<glyph unicode="s" horiz-adv-x="454" d="M197 -12Q68 -12 13 72L40 92Q58 61 97 38T194 15Q228 15 255 24T301 50T330 87T340 130Q340 159 321 178T272 212T209 240T146 269T98 306T78 358Q78 386 89 411T122 455T175 484T247 495Q310 495 354 471T415 416L390 397Q382 412 368 425T334 447T291 462T243 468Q182 468 146 439T109 368Q109 341 128 323T177 290T240 264T303 235T351 196T371 139Q371 110 360 83T326 35T272 1T197 -12Z"  />
<glyph unicode="t" horiz-adv-x="256" d="M135 -12Q96 -12 75 5T53 61Q53 64 53 71T56 85L139 456H59L65 483H145L174 615H204L175 483H273L267 456H169L86 85Q85 80 85 75T84 63Q84 15 134 15Q150 15 164 21T189 36L201 12Q187 1 171 -5T135 -12Z"  />
<glyph unicode="u" horiz-adv-x="528" d="M169 483L94 145Q92 137 90 127T88 107Q88 58 120 37T203 15Q228 15 252 23T300 43T344 73T382 108L465 483H495L388 0H358L375 76Q358 59 338 44T294 16T247 -4T197 -12Q167 -12 142 -5T99 16T70 52T59 104Q59 112 61 124T65 146L139 483H169Z"  />
<glyph unicode="v" horiz-adv-x="471" d="M164 0L64 483H97L187 35L476 483H513L199 0H164Z"  />
<glyph unicode="w" horiz-adv-x="704" d="M444 0L395 438L152 0H128L75 483H106L149 47L391 483H415L463 47L700 483H735L468 0H444Z"  />
<glyph unicode="x" horiz-adv-x="472" d="M360 0L235 228L10 0H-32L219 248L86 483H122L238 269L450 483H492L253 248L396 0H360Z"  />
<glyph unicode="y" horiz-adv-x="528" d="M174 -196Q98 -196 52 -177T-27 -115L-1 -92Q23 -132 67 -150T174 -169Q251 -169 295 -124T357 -4L374 74Q336 39 292 14T197 -12Q171 -12 146 -6T102 13T72 48T60 102Q60 109 60 119T65 146L139 483H169L94 145Q89 120 89 105Q89 79 98 62T124 34T160 19T203 15Q228 15 252 23T300 43T344 73T382 108L465 483H495L387 -4Q375 -59 354 -95T304 -154T243 -186T174 -196Z"  />
<glyph unicode="z" horiz-adv-x="466" d="M6 0L11 27L410 456H107L113 483H455L449 456L48 27H357L352 0H6Z"  />
<glyph unicode="{" horiz-adv-x="237" d="M73 -190Q56 -190 41 -184T12 -167T-8 -139T-16 -102Q-16 -88 -13 -77L39 157Q40 162 40 165T41 174Q41 197 31 213T3 229L10 259Q40 259 56 281T78 331L130 565Q143 621 175 649T254 678H316L309 648H247Q213 648 191 626T160 565L107 328Q100 296 85 274T43 241Q59 233 65 219T72 188Q72 180 71 172T68 154L17 -77Q16 -82 16 -87T15 -99Q15 -125 31 -142T74 -160H130L123 -190H73Z"  />
<glyph unicode="|" horiz-adv-x="206" d="M108 -20V687H138V-20H108Z"  />
<glyph unicode="}" horiz-adv-x="237" d="M163 678Q179 678 195 672T224 655T244 627T252 590Q252 584 251 577T249 565L197 331Q196 326 196 323T195 314Q195 291 205 275T233 259L226 229Q196 229 180 207T158 157L106 -77Q93 -133 61 -161T-18 -190H-80L-73 -160H-11Q23 -160 45 -138T76 -77L129 160Q136 192 151 214T193 247Q177 255 171 269T164 300Q164 308 165 316T168 334L219 565Q220 570 220 575T221 587Q221 613 205 630T162 648H106L113 678H163Z"  />
<glyph unicode="~" horiz-adv-x="496" d="M561 664Q550 618 535 577T498 503T451 452T391 433Q358 433 341 448T316 485T303 534T293 582T275 620T237 635Q194 635 159 583T99 431L70 436Q81 482 96 523T133 596T180 646T239 665Q272 665 289 650T314 613T327 564T337 515T355 477T393 462Q481 462 531 667L561 664Z"  />
<glyph unicode="&#xA0;" horiz-adv-x="260" />
<glyph unicode="&#xA1;" horiz-adv-x="208" d="M131 322L30 -184H-12L111 322H131ZM154 492Q167 492 175 484T184 462Q184 447 174 437T148 427Q135 427 127 435T118 457Q118 472 128 482T154 492Z"  />
<glyph unicode="&#xA2;" d="M260 -12Q253 -12 247 -12T235 -11L215 -100H185L206 -6Q138 8 95 60T51 200Q51 260 71 313T127 407T211 471T315 495H317L333 565H363L347 493Q394 488 427 467T482 409L458 392Q438 426 407 444T341 466L241 16Q246 15 251 15T262 15Q306 15 341 33T402 81L421 60Q388 26 350 7T260 -12ZM84 197Q84 122 119 78T212 20L311 468Q258 466 216 443T144 382T100 296T84 197Z"  />
<glyph unicode="&#xA3;" horiz-adv-x="491" d="M28 297H177Q167 316 154 334T129 371T109 413T100 463Q100 503 117 541T165 610T237 658T327 677Q357 677 386 669T440 647T482 613T507 570L477 555Q472 574 458 591T425 620T380 640T327 647Q289 647 255 635T193 599T150 541T134 464Q134 435 142 413T161 372T186 335T208 297H357L351 267H219Q221 259 222 251T223 234Q223 206 212 180T182 130T142 88T100 56Q112 60 122 62T149 64Q175 64 196 57T238 40T279 24T323 16Q355 16 380 29T423 59L435 32Q409 12 382 -1T323 -14Q288 -14 266 -7T225 10T182 26T123 34Q97 34 67 23T5 -7L-2 26Q38 41 73 64T135 115T177 174T193 235Q193 243 192 251T189 267H22L28 297Z"  />
<glyph unicode="&#xA4;" horiz-adv-x="506" d="M253 222Q310 222 341 262T372 365Q372 395 364 421T341 467T304 498T253 509Q224 509 202 498T165 468T141 422T133 365Q133 334 141 308T164 263T202 233T253 222ZM19 168L88 239Q50 294 50 365Q50 436 88 489L19 560L64 603L131 534Q155 552 185 563T253 574Q289 574 320 563T375 534L442 603L487 560L418 489Q455 435 455 365Q455 330 445 298T417 240L487 168L442 125L374 194Q325 157 253 157Q181 157 132 194L64 125L19 168Z"  />
<glyph unicode="&#xA5;" horiz-adv-x="610" d="M239 0L267 129H-5L2 159H274L303 289H31L37 319H288L118 667H155L322 321L641 667H686L363 319H605L599 289H335L306 159H570L563 129H299L271 0H239Z"  />
<glyph unicode="&#xA6;" horiz-adv-x="206" d="M108 -20V296H138V-20H108ZM108 371V687H138V371H108Z"  />
<glyph unicode="&#xA7;" horiz-adv-x="454" d="M410 312Q410 269 380 231T278 173Q324 149 339 124T355 67Q355 40 344 14T311 -34T257 -68T183 -81Q114 -81 67 -61T-11 -2L17 18Q39 -16 82 -35T181 -54Q212 -54 238 -45T283 -20T312 17T323 64Q323 93 304 111T256 144T194 170T131 199T83 238T64 296Q64 344 104 382T224 429Q177 446 148 472T118 542Q118 565 128 589T158 632T210 664T282 677Q344 677 390 657T463 601L437 584Q424 602 406 615T368 635T326 646T284 650Q255 650 230 642T187 621T159 588T148 548Q148 518 167 500T216 467T279 441T342 413T390 373T410 312ZM379 308Q379 329 370 345T345 373T309 394T264 413Q175 402 135 370T94 300Q94 277 104 262T135 233T183 209T246 186Q321 207 350 241T379 308Z"  />
<glyph unicode="&#xA8;" horiz-adv-x="252" d="M333 601Q333 588 324 579T302 570Q291 570 284 577T277 595Q277 608 286 617T308 626Q319 626 326 619T333 601ZM131 601Q131 588 122 579T100 570Q89 570 82 577T75 595Q75 608 84 617T106 626Q117 626 124 619T131 601Z"  />
<glyph unicode="&#xA9;" horiz-adv-x="778" d="M754 334Q754 263 727 200T653 90T543 16T408 -11Q337 -11 274 16T165 90T91 200T64 334Q64 406 91 468T164 578T274 652T408 679Q480 679 543 652T653 578T727 469T754 334ZM728 334Q728 400 703 458T634 559T532 628T408 653Q342 653 285 628T184 560T115 458T90 334Q90 268 115 210T183 109T284 40T408 15Q474 15 532 40T633 108T702 210T728 334ZM519 170Q492 147 460 133T388 119Q342 119 307 134T247 174T209 234T196 307Q196 359 216 403T270 480T345 531T433 550Q539 550 586 470L562 453Q544 488 511 505T433 523Q395 523 358 507T292 462T244 394T225 307Q225 274 237 245T270 194T322 159T388 146Q420 146 452 159T504 193L519 170Z"  />
<glyph unicode="&#xAA;" horiz-adv-x="407" d="M266 624Q236 624 211 610T166 573T136 519T125 454Q125 399 153 371T227 342Q267 342 296 361T346 405L382 566Q368 592 337 608T266 624ZM426 640L356 326H328L340 379Q316 350 288 334T222 318Q197 318 174 326T134 351T106 393T95 454Q95 491 107 526T143 588T197 631T266 648Q308 648 339 632T387 588L398 640H426Z"  />
<glyph unicode="&#xAB;" horiz-adv-x="364" d="M149 63L29 243L229 420H272L68 238L184 63H149ZM254 63L134 243L334 420H377L173 238L289 63H254Z"  />
<glyph unicode="&#xAC;" horiz-adv-x="494" d="M459 220H427L471 418H67L74 448H510L459 220Z"  />
<glyph unicode="&#xAD;" horiz-adv-x="300" d="M26 227L32 257H272L266 227H26Z"  />
<glyph unicode="&#xAE;" horiz-adv-x="494" d="M508 465Q508 421 492 383T446 315T378 270T295 253Q251 253 213 269T146 315T101 382T84 465Q84 509 100 548T146 615T213 660T296 677Q340 677 379 661T446 616T491 548T508 465ZM482 465Q482 504 468 538T428 597T368 636T295 651Q256 651 223 637T164 597T125 538T110 465Q110 427 124 393T164 334T222 294T295 279Q334 279 368 293T427 333T467 393T482 465ZM330 343L288 439H239L218 343H189L242 586H333Q358 586 379 570T401 522Q401 503 394 488T375 463T349 446T321 440L365 343H330ZM370 518Q370 538 358 548T329 559H265L245 467H315Q337 467 353 481T370 518Z"  />
<glyph unicode="&#xAF;" horiz-adv-x="363" d="M77 591L83 618H445L439 591H77Z"  />
<glyph unicode="&#xB0;" horiz-adv-x="273" d="M318 566Q318 543 309 523T285 488T250 465T207 456Q184 456 164 464T129 488T106 523T97 566Q97 589 105 609T129 644T164 668T207 677Q230 677 250 668T285 644T309 609T318 566ZM288 566Q288 599 264 623T207 647Q174 647 151 623T127 566Q127 533 150 510T206 486Q239 486 263 509T288 566Z"  />
<glyph unicode="&#xB1;" horiz-adv-x="494" d="M280 322L231 100H199L248 322H46L53 352H255L302 568H334L287 352H489L482 322H280ZM-25 0L-19 30H417L411 0H-25Z"  />
<glyph unicode="&#xB2;" horiz-adv-x="380" d="M93 421L99 449Q158 485 212 520T308 588T374 656T399 725Q399 745 391 759T368 783T336 796T300 801Q230 801 187 753L170 772Q194 798 226 812T300 827Q320 827 343 822T385 805T416 774T429 725Q429 686 404 650T339 580T248 513T144 447H369L364 421H93Z"  />
<glyph unicode="&#xB3;" horiz-adv-x="380" d="M390 537Q390 514 381 492T354 453T311 425T252 414Q201 414 165 432T108 486L131 501Q169 440 252 440Q302 440 330 469T359 541Q359 573 329 594T251 615Q243 615 236 615T224 614L230 641Q242 640 257 640T287 639Q335 639 365 661T396 725Q396 743 388 757T365 780T332 795T292 801Q259 801 233 789T181 754L165 774Q187 794 220 810T292 827Q317 827 340 821T383 803T413 773T425 729Q425 704 416 685T392 653T356 633T313 623Q327 620 340 613T365 595T383 570T390 537Z"  />
<glyph unicode="&#xB4;" horiz-adv-x="205" d="M99 556H67L259 700H306L99 556Z"  />
<glyph unicode="&#xB5;" horiz-adv-x="528" d="M-9 -184L139 483H169L94 144Q86 106 89 81T105 41T139 20T189 13Q214 13 240 20T292 40T340 68T380 103L465 483H495L388 0H358L374 74Q355 57 332 42T283 14T232 -5T180 -12Q138 -12 111 -2T69 34L21 -184H-9Z"  />
<glyph unicode="&#xB6;" horiz-adv-x="449" d="M250 -100L414 637H316L152 -100H122L216 323Q188 323 163 334T120 367T90 416T79 479Q79 514 93 548T134 608T195 651T273 667H450L280 -100H250Z"  />
<glyph unicode="&#xB7;" horiz-adv-x="208" d="M101 212Q88 212 80 220T71 242Q71 257 81 267T107 277Q120 277 128 269T137 247Q137 232 127 222T101 212Z"  />
<glyph unicode="&#xB8;" horiz-adv-x="191" d="M10 -187Q-22 -187 -47 -177T-89 -151L-69 -126Q-53 -144 -31 -152T13 -160Q50 -160 67 -144T84 -104Q84 -87 73 -78T41 -68Q30 -68 20 -72T1 -87L-18 -74L32 11H62L21 -58Q36 -46 56 -46Q82 -46 97 -60T113 -102Q113 -139 86 -163T10 -187Z"  />
<glyph unicode="&#xB9;" horiz-adv-x="192" d="M141 421L219 777L143 711L127 732L232 821H259L171 421H141Z"  />
<glyph unicode="&#xBA;" horiz-adv-x="405" d="M237 318Q174 318 136 356T97 458Q97 496 110 530T147 591T203 632T273 648Q336 648 374 610T413 508Q413 470 400 436T363 375T307 334T237 318ZM237 344Q270 344 297 357T343 393T373 445T384 508Q384 558 354 589T273 621Q240 621 214 608T168 573T138 521T127 458Q127 408 157 376T237 344Z"  />
<glyph unicode="&#xBB;" horiz-adv-x="364" d="M112 420L232 240L32 63H-11L193 245L77 420H112ZM217 420L337 240L137 63H94L298 245L182 420H217Z"  />
<glyph unicode="&#xBC;" horiz-adv-x="715" d="M65 0H29L602 667H639L65 0ZM578 113L553 0H524L549 113H353L358 139L602 400H641L583 139H645L640 113H578ZM605 367L390 139H554L605 367ZM107 267L185 623L109 557L93 578L198 667H225L137 267H107Z"  />
<glyph unicode="&#xBD;" horiz-adv-x="755" d="M65 0H29L602 667H639L65 0ZM375 0L381 28Q440 64 494 99T590 167T656 235T681 304Q681 324 673 338T650 362T618 375T582 380Q512 380 469 332L452 351Q476 377 508 391T582 406Q602 406 625 401T667 384T698 353T711 304Q711 265 686 229T621 159T530 92T426 26H651L646 0H375ZM107 267L185 623L109 557L93 578L198 667H225L137 267H107Z"  />
<glyph unicode="&#xBE;" horiz-adv-x="841" d="M191 0H155L728 667H765L191 0ZM704 113L679 0H650L675 113H479L484 139L728 400H767L709 139H771L766 113H704ZM731 367L516 139H680L731 367ZM356 383Q356 360 347 338T320 299T277 271T218 260Q167 260 131 278T74 332L97 347Q135 286 218 286Q268 286 296 315T325 387Q325 419 295 440T217 461Q209 461 202 461T190 460L196 487Q208 486 223 486T253 485Q301 485 331 507T362 571Q362 589 354 603T331 626T298 641T258 647Q225 647 199 635T147 600L131 620Q153 640 186 656T258 673Q283 673 306 667T349 649T379 619T391 575Q391 550 382 531T358 499T322 479T279 469Q293 466 306 459T331 441T349 416T356 383Z"  />
<glyph unicode="&#xBF;" horiz-adv-x="391" d="M257 315Q286 282 286 243Q286 207 266 183T215 140T149 105T83 68T33 20T12 -49Q12 -100 53 -132T168 -164Q222 -164 267 -144T349 -85L367 -106Q322 -152 274 -173T168 -194Q124 -194 89 -183T28 -153T-10 -108T-24 -49Q-24 -4 -4 26T48 80T115 120T183 154T234 192T255 243Q255 254 251 267T233 292L257 315ZM295 492Q308 492 316 484T325 462Q325 447 315 437T289 427Q276 427 268 435T259 457Q259 472 269 482T295 492Z"  />
<glyph unicode="&#xC0;" horiz-adv-x="636" d="M448 728L305 872H350L478 728H448ZM526 0L491 179H119L6 0H-33L392 667H430L561 0H526ZM405 630L138 209H486L405 630Z"  />
<glyph unicode="&#xC1;" horiz-adv-x="636" d="M403 728H371L563 872H610L403 728ZM526 0L491 179H119L6 0H-33L392 667H430L561 0H526ZM405 630L138 209H486L405 630Z"  />
<glyph unicode="&#xC2;" horiz-adv-x="636" d="M518 728L453 848L339 728H309L439 872H475L544 728H518ZM526 0L491 179H119L6 0H-33L392 667H430L561 0H526ZM405 630L138 209H486L405 630Z"  />
<glyph unicode="&#xC3;" horiz-adv-x="636" d="M495 726Q466 726 453 743T432 782T413 821T379 839Q354 839 335 814T303 732H276Q282 759 291 783T314 826T346 855T385 866Q414 866 427 849T448 810T467 771T501 753Q526 753 545 778T578 860H605Q599 833 590 809T566 766T534 737T495 726ZM526 0L491 179H119L6 0H-33L392 667H430L561 0H526ZM405 630L138 209H486L405 630Z"  />
<glyph unicode="&#xC4;" horiz-adv-x="636" d="M563 767Q563 754 554 745T532 736Q521 736 514 743T507 761Q507 774 516 783T538 792Q549 792 556 785T563 767ZM361 767Q361 754 352 745T330 736Q319 736 312 743T305 761Q305 774 314 783T336 792Q347 792 354 785T361 767ZM526 0L491 179H119L6 0H-33L392 667H430L561 0H526ZM405 630L138 209H486L405 630Z"  />
<glyph unicode="&#xC5;" horiz-adv-x="636" d="M428 692Q391 692 368 715T344 776Q344 797 352 815T374 848T406 870T446 878Q483 878 506 855T530 794Q530 773 522 755T500 722T468 700T428 692ZM428 716Q460 716 483 738T506 792Q506 820 490 837T446 854Q414 854 391 832T368 778Q368 751 384 734T428 716ZM526 0L491 179H119L6 0H-33L392 667H430L561 0H526ZM405 630L138 209H486L405 630Z"  />
<glyph unicode="&#xC6;" horiz-adv-x="930" d="M403 0L442 179H159L7 0H-33L539 667H958L952 637H576L514 358H883L876 328H507L441 30H817L811 0H403ZM541 626L183 209H449L541 626Z"  />
<glyph unicode="&#xC7;" horiz-adv-x="667" d="M365 -12Q360 -12 356 -12T347 -11L320 -58Q335 -46 355 -46Q381 -46 396 -60T412 -102Q412 -139 385 -163T309 -187Q277 -187 252 -177T210 -151L230 -126Q246 -144 268 -152T312 -160Q349 -160 366 -144T383 -104Q383 -87 372 -78T340 -68Q329 -68 319 -72T300 -87L281 -74L319 -9Q264 -2 219 21T142 80T92 166T74 274Q74 366 105 440T188 568T304 649T438 678Q516 678 582 647T690 549L660 530Q621 595 562 621T435 648Q375 648 317 623T213 549T139 431T110 274Q110 216 128 169T179 88T260 36T367 18Q418 18 466 35T565 94L585 71Q536 29 480 9T365 -12Z"  />
<glyph unicode="&#xC8;" horiz-adv-x="558" d="M421 728L278 872H323L451 728H421ZM34 0L181 667H589L583 637H207L145 358H514L507 328H138L72 30H448L442 0H34Z"  />
<glyph unicode="&#xC9;" horiz-adv-x="558" d="M376 728H344L536 872H583L376 728ZM34 0L181 667H589L583 637H207L145 358H514L507 328H138L72 30H448L442 0H34Z"  />
<glyph unicode="&#xCA;" horiz-adv-x="558" d="M489 728L424 848L310 728H280L410 872H446L515 728H489ZM34 0L181 667H589L583 637H207L145 358H514L507 328H138L72 30H448L442 0H34Z"  />
<glyph unicode="&#xCB;" horiz-adv-x="558" d="M534 767Q534 754 525 745T503 736Q492 736 485 743T478 761Q478 774 487 783T509 792Q520 792 527 785T534 767ZM332 767Q332 754 323 745T301 736Q290 736 283 743T276 761Q276 774 285 783T307 792Q318 792 325 785T332 767ZM34 0L181 667H589L583 637H207L145 358H514L507 328H138L72 30H448L442 0H34Z"  />
<glyph unicode="&#xCC;" horiz-adv-x="208" d="M234 728L91 872H136L264 728H234ZM34 0L181 667H213L66 0H34Z"  />
<glyph unicode="&#xCD;" horiz-adv-x="208" d="M189 728H157L349 872H396L189 728ZM34 0L181 667H213L66 0H34Z"  />
<glyph unicode="&#xCE;" horiz-adv-x="208" d="M304 728L239 848L125 728H95L225 872H261L330 728H304ZM34 0L181 667H213L66 0H34Z"  />
<glyph unicode="&#xCF;" horiz-adv-x="208" d="M348 767Q348 754 339 745T317 736Q306 736 299 743T292 761Q292 774 301 783T323 792Q334 792 341 785T348 767ZM146 767Q146 754 137 745T115 736Q104 736 97 743T90 761Q90 774 99 783T121 792Q132 792 139 785T146 767ZM34 0L181 667H213L66 0H34Z"  />
<glyph unicode="&#xD0;" horiz-adv-x="715" d="M65 0L135 319H28L35 349H142L212 667H405Q461 667 509 646T594 586T650 497T671 384Q671 314 645 245T568 122T440 34T262 0H65ZM167 319L103 30H267Q352 30 420 58T537 135T611 248T637 384Q637 439 619 485T569 565T494 618T399 637H238L174 349H361L354 319H167Z"  />
<glyph unicode="&#xD1;" horiz-adv-x="690" d="M520 726Q491 726 478 743T457 782T438 821T404 839Q379 839 360 814T328 732H301Q307 759 316 783T339 826T371 855T410 866Q439 866 452 849T473 810T492 771T526 753Q551 753 570 778T603 860H630Q624 833 615 809T591 766T559 737T520 726ZM516 0L203 619L66 0H34L181 667H213L527 54L663 667H695L548 0H516Z"  />
<glyph unicode="&#xD2;" horiz-adv-x="764" d="M516 728L373 872H418L546 728H516ZM365 -12Q305 -12 252 6T160 61T97 150T74 274Q74 359 103 433T181 561T297 647T438 678Q498 678 551 660T643 605T706 516T729 392Q729 306 700 233T622 105T506 19T365 -12ZM367 18Q431 18 490 45T594 122T666 240T693 392Q693 455 672 503T616 583T534 632T435 648Q370 648 312 621T208 544T137 425T110 274Q110 211 130 163T186 83T268 34T367 18Z"  />
<glyph unicode="&#xD3;" horiz-adv-x="764" d="M468 728H436L628 872H675L468 728ZM365 -12Q305 -12 252 6T160 61T97 150T74 274Q74 359 103 433T181 561T297 647T438 678Q498 678 551 660T643 605T706 516T729 392Q729 306 700 233T622 105T506 19T365 -12ZM367 18Q431 18 490 45T594 122T666 240T693 392Q693 455 672 503T616 583T534 632T435 648Q370 648 312 621T208 544T137 425T110 274Q110 211 130 163T186 83T268 34T367 18Z"  />
<glyph unicode="&#xD4;" horiz-adv-x="764" d="M582 728L517 848L403 728H373L503 872H539L608 728H582ZM365 -12Q305 -12 252 6T160 61T97 150T74 274Q74 359 103 433T181 561T297 647T438 678Q498 678 551 660T643 605T706 516T729 392Q729 306 700 233T622 105T506 19T365 -12ZM367 18Q431 18 490 45T594 122T666 240T693 392Q693 455 672 503T616 583T534 632T435 648Q370 648 312 621T208 544T137 425T110 274Q110 211 130 163T186 83T268 34T367 18Z"  />
<glyph unicode="&#xD5;" horiz-adv-x="764" d="M559 726Q530 726 517 743T496 782T477 821T443 839Q418 839 399 814T367 732H340Q346 759 355 783T378 826T410 855T449 866Q478 866 491 849T512 810T531 771T565 753Q590 753 609 778T642 860H669Q663 833 654 809T630 766T598 737T559 726ZM365 -12Q305 -12 252 6T160 61T97 150T74 274Q74 359 103 433T181 561T297 647T438 678Q498 678 551 660T643 605T706 516T729 392Q729 306 700 233T622 105T506 19T365 -12ZM367 18Q431 18 490 45T594 122T666 240T693 392Q693 455 672 503T616 583T534 632T435 648Q370 648 312 621T208 544T137 425T110 274Q110 211 130 163T186 83T268 34T367 18Z"  />
<glyph unicode="&#xD6;" horiz-adv-x="764" d="M624 767Q624 754 615 745T593 736Q582 736 575 743T568 761Q568 774 577 783T599 792Q610 792 617 785T624 767ZM422 767Q422 754 413 745T391 736Q380 736 373 743T366 761Q366 774 375 783T397 792Q408 792 415 785T422 767ZM365 -12Q305 -12 252 6T160 61T97 150T74 274Q74 359 103 433T181 561T297 647T438 678Q498 678 551 660T643 605T706 516T729 392Q729 306 700 233T622 105T506 19T365 -12ZM367 18Q431 18 490 45T594 122T666 240T693 392Q693 455 672 503T616 583T534 632T435 648Q370 648 312 621T208 544T137 425T110 274Q110 211 130 163T186 83T268 34T367 18Z"  />
<glyph unicode="&#xD7;" horiz-adv-x="494" d="M264 313L74 157L55 180L246 336L126 490L150 509L269 355L460 511L478 488L288 332L407 178L384 159L264 313Z"  />
<glyph unicode="&#xD8;" horiz-adv-x="764" d="M365 -12Q313 -12 267 2T182 43L147 0H111L160 60Q120 96 97 149T74 274Q74 359 103 433T181 561T297 647T438 678Q544 678 620 623L656 667H692L642 606Q682 570 705 517T729 392Q729 306 700 233T622 105T506 19T365 -12ZM367 18Q431 18 490 45T594 122T666 240T693 392Q693 454 674 500T620 579L203 69Q237 43 278 31T367 18ZM110 274Q110 212 129 165T182 86L599 597Q565 623 523 635T435 648Q370 648 312 621T208 544T137 425T110 274Z"  />
<glyph unicode="&#xD9;" horiz-adv-x="672" d="M467 728L324 872H369L497 728H467ZM319 -12Q266 -12 223 2T149 44T102 111T85 200Q85 218 86 231T90 253L181 667H213L122 253Q120 247 118 234T116 204Q116 120 169 69T319 18Q371 18 410 34T476 80T523 153T554 253L645 667H677L586 253Q572 191 552 142T500 59T424 6T319 -12Z"  />
<glyph unicode="&#xDA;" horiz-adv-x="672" d="M419 728H387L579 872H626L419 728ZM319 -12Q266 -12 223 2T149 44T102 111T85 200Q85 218 86 231T90 253L181 667H213L122 253Q120 247 118 234T116 204Q116 120 169 69T319 18Q371 18 410 34T476 80T523 153T554 253L645 667H677L586 253Q572 191 552 142T500 59T424 6T319 -12Z"  />
<glyph unicode="&#xDB;" horiz-adv-x="672" d="M538 728L473 848L359 728H329L459 872H495L564 728H538ZM319 -12Q266 -12 223 2T149 44T102 111T85 200Q85 218 86 231T90 253L181 667H213L122 253Q120 247 118 234T116 204Q116 120 169 69T319 18Q371 18 410 34T476 80T523 153T554 253L645 667H677L586 253Q572 191 552 142T500 59T424 6T319 -12Z"  />
<glyph unicode="&#xDC;" horiz-adv-x="672" d="M580 767Q580 754 571 745T549 736Q538 736 531 743T524 761Q524 774 533 783T555 792Q566 792 573 785T580 767ZM378 767Q378 754 369 745T347 736Q336 736 329 743T322 761Q322 774 331 783T353 792Q364 792 371 785T378 767ZM319 -12Q266 -12 223 2T149 44T102 111T85 200Q85 218 86 231T90 253L181 667H213L122 253Q120 247 118 234T116 204Q116 120 169 69T319 18Q371 18 410 34T476 80T523 153T554 253L645 667H677L586 253Q572 191 552 142T500 59T424 6T319 -12Z"  />
<glyph unicode="&#xDD;" horiz-adv-x="610" d="M394 728H362L554 872H601L394 728ZM235 0L299 289L114 667H151L318 321L637 667H682L331 289L267 0H235Z"  />
<glyph unicode="&#xDE;" horiz-adv-x="555" d="M34 0L181 667H213L185 538H371Q405 538 435 526T488 491T524 440T537 376Q537 338 524 300T481 230T407 180T298 160H101L66 0H34ZM303 190Q354 190 391 206T453 248T490 307T502 376Q502 403 491 427T462 469T419 497T367 508H178L108 190H303Z"  />
<glyph unicode="&#xDF;" horiz-adv-x="558" d="M515 136Q515 110 505 84T474 36T420 2T342 -12Q308 -12 281 -7T230 9T187 37T148 78L175 97Q201 62 241 39T343 15Q378 15 404 25T449 52T476 90T485 132Q485 161 466 179T417 210T355 235T292 262T244 299T224 354Q224 387 240 409T279 447T331 475T382 499T422 528T438 568Q438 588 427 603T400 628T364 644T326 650Q274 650 233 615T177 519L62 0H32L147 519Q154 553 170 582T208 632T260 665T325 677Q352 677 377 670T423 649T455 616T468 572Q468 540 452 520T413 485T361 459T310 435T270 404T254 358Q254 330 273 313T322 282T384 258T447 231T495 193T515 136Z"  />
<glyph unicode="&#xE0;" horiz-adv-x="514" d="M360 556L217 700H262L390 556H360ZM346 0L358 55Q323 22 287 5T203 -12Q171 -12 142 -4T89 22T52 65T38 128Q38 171 53 205T93 262T151 297T220 310Q283 310 325 290T397 231L420 334Q421 337 422 348T423 368Q423 412 386 440T283 468Q237 468 199 449T133 401L114 423Q193 495 284 495Q319 495 350 488T404 465T440 426T454 371Q454 361 453 350T449 331L376 0H346ZM208 15Q256 15 294 33T365 87L392 205Q369 245 324 264T225 283Q191 283 163 272T115 240T83 191T72 131Q72 73 111 44T208 15Z"  />
<glyph unicode="&#xE1;" horiz-adv-x="514" d="M313 556H281L473 700H520L313 556ZM346 0L358 55Q323 22 287 5T203 -12Q171 -12 142 -4T89 22T52 65T38 128Q38 171 53 205T93 262T151 297T220 310Q283 310 325 290T397 231L420 334Q421 337 422 348T423 368Q423 412 386 440T283 468Q237 468 199 449T133 401L114 423Q193 495 284 495Q319 495 350 488T404 465T440 426T454 371Q454 361 453 350T449 331L376 0H346ZM208 15Q256 15 294 33T365 87L392 205Q369 245 324 264T225 283Q191 283 163 272T115 240T83 191T72 131Q72 73 111 44T208 15Z"  />
<glyph unicode="&#xE2;" horiz-adv-x="514" d="M430 556L365 676L251 556H221L351 700H387L456 556H430ZM346 0L358 55Q323 22 287 5T203 -12Q171 -12 142 -4T89 22T52 65T38 128Q38 171 53 205T93 262T151 297T220 310Q283 310 325 290T397 231L420 334Q421 337 422 348T423 368Q423 412 386 440T283 468Q237 468 199 449T133 401L114 423Q193 495 284 495Q319 495 350 488T404 465T440 426T454 371Q454 361 453 350T449 331L376 0H346ZM208 15Q256 15 294 33T365 87L392 205Q369 245 324 264T225 283Q191 283 163 272T115 240T83 191T72 131Q72 73 111 44T208 15Z"  />
<glyph unicode="&#xE3;" horiz-adv-x="514" d="M406 554Q377 554 364 571T343 610T324 649T290 667Q265 667 246 642T214 560H187Q193 587 202 611T225 654T257 683T296 694Q325 694 338 677T359 638T378 599T412 581Q437 581 456 606T489 688H516Q510 661 501 637T477 594T445 565T406 554ZM346 0L358 55Q323 22 287 5T203 -12Q171 -12 142 -4T89 22T52 65T38 128Q38 171 53 205T93 262T151 297T220 310Q283 310 325 290T397 231L420 334Q421 337 422 348T423 368Q423 412 386 440T283 468Q237 468 199 449T133 401L114 423Q193 495 284 495Q319 495 350 488T404 465T440 426T454 371Q454 361 453 350T449 331L376 0H346ZM208 15Q256 15 294 33T365 87L392 205Q369 245 324 264T225 283Q191 283 163 272T115 240T83 191T72 131Q72 73 111 44T208 15Z"  />
<glyph unicode="&#xE4;" horiz-adv-x="514" d="M473 601Q473 588 464 579T442 570Q431 570 424 577T417 595Q417 608 426 617T448 626Q459 626 466 619T473 601ZM271 601Q271 588 262 579T240 570Q229 570 222 577T215 595Q215 608 224 617T246 626Q257 626 264 619T271 601ZM346 0L358 55Q323 22 287 5T203 -12Q171 -12 142 -4T89 22T52 65T38 128Q38 171 53 205T93 262T151 297T220 310Q283 310 325 290T397 231L420 334Q421 337 422 348T423 368Q423 412 386 440T283 468Q237 468 199 449T133 401L114 423Q193 495 284 495Q319 495 350 488T404 465T440 426T454 371Q454 361 453 350T449 331L376 0H346ZM208 15Q256 15 294 33T365 87L392 205Q369 245 324 264T225 283Q191 283 163 272T115 240T83 191T72 131Q72 73 111 44T208 15Z"  />
<glyph unicode="&#xE5;" horiz-adv-x="514" d="M347 560Q310 560 287 583T263 644Q263 665 271 683T293 716T325 738T365 746Q402 746 425 723T449 662Q449 641 441 623T419 590T387 568T347 560ZM347 584Q379 584 402 606T425 660Q425 688 409 705T365 722Q333 722 310 700T287 646Q287 619 303 602T347 584ZM346 0L358 55Q323 22 287 5T203 -12Q171 -12 142 -4T89 22T52 65T38 128Q38 171 53 205T93 262T151 297T220 310Q283 310 325 290T397 231L420 334Q421 337 422 348T423 368Q423 412 386 440T283 468Q237 468 199 449T133 401L114 423Q193 495 284 495Q319 495 350 488T404 465T440 426T454 371Q454 361 453 350T449 331L376 0H346ZM208 15Q256 15 294 33T365 87L392 205Q369 245 324 264T225 283Q191 283 163 272T115 240T83 191T72 131Q72 73 111 44T208 15Z"  />
<glyph unicode="&#xE6;" horiz-adv-x="908" d="M427 232Q426 230 426 220T425 201Q425 162 436 129T471 70T529 30T612 15Q657 15 695 30T765 72L780 50Q747 22 703 5T612 -12Q534 -12 483 19T410 105Q395 86 377 66T334 28T277 -1T203 -12Q170 -12 140 -4T88 22T52 65T38 128Q38 173 53 207T94 264T152 298T220 310Q278 310 325 291T398 235L420 334Q423 349 423 368Q423 392 412 410T382 442T338 461T283 468Q235 468 200 450T133 401L114 423Q154 461 195 478T284 495Q320 495 350 488T402 466T436 425T449 364Q460 392 480 416T526 457T585 485T653 495Q698 495 735 480T799 438T839 373T854 288Q854 280 853 271T851 254T849 239T847 232H427ZM822 259Q824 266 824 272T824 285Q824 368 777 418T648 468Q601 468 565 449T503 399T460 332T433 259H822ZM400 131Q392 161 392 201Q392 205 391 207Q381 226 364 240T324 263T276 278T225 283Q191 283 163 271T115 239T83 191T72 131Q72 74 110 45T208 15Q256 15 303 40T400 131Z"  />
<glyph unicode="&#xE7;" d="M205 -187Q173 -187 148 -177T106 -151L126 -126Q142 -144 164 -152T208 -160Q245 -160 262 -144T279 -104Q279 -87 268 -78T236 -68Q225 -68 215 -72T196 -87L177 -74L215 -8Q179 -2 149 14T98 57T64 119T51 200Q51 260 71 313T127 407T211 471T315 495Q431 495 482 409L458 392Q435 432 398 450T318 468Q263 468 220 445T146 384T100 298T84 197Q84 152 97 118T135 61T191 27T262 15Q306 15 341 33T402 81L421 60Q388 26 350 7T260 -12Q255 -12 252 -12T243 -11L216 -58Q231 -46 251 -46Q277 -46 292 -60T308 -102Q308 -139 281 -163T205 -187Z"  />
<glyph unicode="&#xE8;" horiz-adv-x="571" d="M275 -12Q221 -12 180 4T110 48T66 115T51 200Q51 261 72 314T129 408T213 471T316 495Q365 495 402 479T465 434T504 368T517 288Q517 274 515 258T510 232H87Q86 227 86 218T85 200Q85 161 97 127T133 69T192 30T275 15Q313 15 353 29T428 72L443 50Q411 24 367 6T275 -12ZM485 259Q486 264 486 272T487 285Q487 366 441 417T311 468Q271 468 235 451T168 406T118 339T90 259H482H485ZM380 556L237 700H282L410 556H380Z"  />
<glyph unicode="&#xE9;" horiz-adv-x="571" d="M275 -12Q221 -12 180 4T110 48T66 115T51 200Q51 261 72 314T129 408T213 471T316 495Q365 495 402 479T465 434T504 368T517 288Q517 274 515 258T510 232H87Q86 227 86 218T85 200Q85 161 97 127T133 69T192 30T275 15Q313 15 353 29T428 72L443 50Q411 24 367 6T275 -12ZM485 259Q486 264 486 272T487 285Q487 366 441 417T311 468Q271 468 235 451T168 406T118 339T90 259H482H485ZM334 556H302L494 700H541L334 556Z"  />
<glyph unicode="&#xEA;" horiz-adv-x="571" d="M275 -12Q221 -12 180 4T110 48T66 115T51 200Q51 261 72 314T129 408T213 471T316 495Q365 495 402 479T465 434T504 368T517 288Q517 274 515 258T510 232H87Q86 227 86 218T85 200Q85 161 97 127T133 69T192 30T275 15Q313 15 353 29T428 72L443 50Q411 24 367 6T275 -12ZM485 259Q486 264 486 272T487 285Q487 366 441 417T311 468Q271 468 235 451T168 406T118 339T90 259H482H485ZM450 556L385 676L271 556H241L371 700H407L476 556H450Z"  />
<glyph unicode="&#xEB;" horiz-adv-x="571" d="M275 -12Q221 -12 180 4T110 48T66 115T51 200Q51 261 72 314T129 408T213 471T316 495Q365 495 402 479T465 434T504 368T517 288Q517 274 515 258T510 232H87Q86 227 86 218T85 200Q85 161 97 127T133 69T192 30T275 15Q313 15 353 29T428 72L443 50Q411 24 367 6T275 -12ZM485 259Q486 264 486 272T487 285Q487 366 441 417T311 468Q271 468 235 451T168 406T118 339T90 259H482H485ZM495 601Q495 588 486 579T464 570Q453 570 446 577T439 595Q439 608 448 617T470 626Q481 626 488 619T495 601ZM293 601Q293 588 284 579T262 570Q251 570 244 577T237 595Q237 608 246 617T268 626Q279 626 286 619T293 601Z"  />
<glyph unicode="&#xEC;" horiz-adv-x="202" d="M192 556L49 700H94L222 556H192ZM32 0L139 483H169L62 0H32Z"  />
<glyph unicode="&#xED;" horiz-adv-x="202" d="M148 556H116L308 700H355L148 556ZM32 0L139 483H169L62 0H32Z"  />
<glyph unicode="&#xEE;" horiz-adv-x="202" d="M262 556L197 676L83 556H53L183 700H219L288 556H262ZM32 0L139 483H169L62 0H32Z"  />
<glyph unicode="&#xEF;" horiz-adv-x="202" d="M308 601Q308 588 299 579T277 570Q266 570 259 577T252 595Q252 608 261 617T283 626Q294 626 301 619T308 601ZM106 601Q106 588 97 579T75 570Q64 570 57 577T50 595Q50 608 59 617T81 626Q92 626 99 619T106 601ZM32 0L139 483H169L62 0H32Z"  />
<glyph unicode="&#xF0;" horiz-adv-x="570" d="M194 559L333 601Q316 617 298 632T259 663L282 688Q328 653 370 612L492 649L497 623L390 591Q447 527 481 453T516 300Q516 235 497 178T443 79T361 13T259 -12Q213 -12 175 3T110 46T67 111T52 191Q52 254 72 309T128 406T209 471T308 495Q329 495 353 490T400 473T443 441T477 391Q432 499 354 580L200 534L194 559ZM259 15Q304 15 344 37T415 96T464 184T482 290Q482 321 472 352T441 409T387 451T308 468Q264 468 224 448T153 391T104 305T86 199Q86 160 97 126T131 68T185 29T259 15Z"  />
<glyph unicode="&#xF1;" horiz-adv-x="528" d="M358 0L433 338Q435 346 437 356T439 376Q439 425 407 446T324 468Q299 468 275 460T227 440T183 410T145 375L62 0H32L139 483H169L152 407Q169 423 189 439T233 467T280 487T330 495Q360 495 385 488T428 467T457 431T468 379Q468 371 466 359T462 337L388 0H358ZM403 554Q374 554 361 571T340 610T321 649T287 667Q262 667 243 642T211 560H184Q190 587 199 611T222 654T254 683T293 694Q322 694 335 677T356 638T375 599T409 581Q434 581 453 606T486 688H513Q507 661 498 637T474 594T442 565T403 554Z"  />
<glyph unicode="&#xF2;" horiz-adv-x="570" d="M256 -12Q210 -12 172 2T107 44T66 111T51 198Q51 256 71 309T126 404T208 470T312 495Q358 495 396 481T461 439T502 372T517 285Q517 227 497 174T442 79T360 13T256 -12ZM256 15Q305 15 346 38T418 98T466 185T483 285Q483 368 438 418T312 468Q263 468 222 445T150 385T102 298T85 198Q85 115 130 65T256 15ZM377 556L234 700H279L407 556H377Z"  />
<glyph unicode="&#xF3;" horiz-adv-x="570" d="M256 -12Q210 -12 172 2T107 44T66 111T51 198Q51 256 71 309T126 404T208 470T312 495Q358 495 396 481T461 439T502 372T517 285Q517 227 497 174T442 79T360 13T256 -12ZM256 15Q305 15 346 38T418 98T466 185T483 285Q483 368 438 418T312 468Q263 468 222 445T150 385T102 298T85 198Q85 115 130 65T256 15ZM332 556H300L492 700H539L332 556Z"  />
<glyph unicode="&#xF4;" horiz-adv-x="570" d="M256 -12Q210 -12 172 2T107 44T66 111T51 198Q51 256 71 309T126 404T208 470T312 495Q358 495 396 481T461 439T502 372T517 285Q517 227 497 174T442 79T360 13T256 -12ZM256 15Q305 15 346 38T418 98T466 185T483 285Q483 368 438 418T312 468Q263 468 222 445T150 385T102 298T85 198Q85 115 130 65T256 15ZM447 556L382 676L268 556H238L368 700H404L473 556H447Z"  />
<glyph unicode="&#xF5;" horiz-adv-x="570" d="M256 -12Q210 -12 172 2T107 44T66 111T51 198Q51 256 71 309T126 404T208 470T312 495Q358 495 396 481T461 439T502 372T517 285Q517 227 497 174T442 79T360 13T256 -12ZM256 15Q305 15 346 38T418 98T466 185T483 285Q483 368 438 418T312 468Q263 468 222 445T150 385T102 298T85 198Q85 115 130 65T256 15ZM424 554Q395 554 382 571T361 610T342 649T308 667Q283 667 264 642T232 560H205Q211 587 220 611T243 654T275 683T314 694Q343 694 356 677T377 638T396 599T430 581Q455 581 474 606T507 688H534Q528 661 519 637T495 594T463 565T424 554Z"  />
<glyph unicode="&#xF6;" horiz-adv-x="570" d="M256 -12Q210 -12 172 2T107 44T66 111T51 198Q51 256 71 309T126 404T208 470T312 495Q358 495 396 481T461 439T502 372T517 285Q517 227 497 174T442 79T360 13T256 -12ZM256 15Q305 15 346 38T418 98T466 185T483 285Q483 368 438 418T312 468Q263 468 222 445T150 385T102 298T85 198Q85 115 130 65T256 15ZM492 601Q492 588 483 579T461 570Q450 570 443 577T436 595Q436 608 445 617T467 626Q478 626 485 619T492 601ZM290 601Q290 588 281 579T259 570Q248 570 241 577T234 595Q234 608 243 617T265 626Q276 626 283 619T290 601Z"  />
<glyph unicode="&#xF7;" horiz-adv-x="511" d="M46 322L53 352H506L499 322H46ZM228 101Q215 101 207 109T198 131Q198 146 208 156T234 166Q247 166 255 158T264 136Q264 121 254 111T228 101ZM317 503Q304 503 296 511T287 533Q287 548 297 558T323 568Q336 568 344 560T353 538Q353 523 343 513T317 503Z"  />
<glyph unicode="&#xF8;" horiz-adv-x="570" d="M29 0L91 64Q51 116 51 198Q51 256 71 309T126 404T208 470T312 495Q357 495 393 482T455 443L494 483H529L473 424Q494 398 505 363T517 285Q517 227 497 174T442 79T360 13T256 -12Q163 -12 107 44L65 0H29ZM256 15Q305 15 346 38T418 98T466 185T483 285Q483 354 450 401L128 66Q174 15 256 15ZM85 198Q85 132 113 87L434 421Q389 468 312 468Q263 468 222 445T150 385T102 298T85 198Z"  />
<glyph unicode="&#xF9;" horiz-adv-x="528" d="M169 483L94 145Q92 137 90 127T88 107Q88 58 120 37T203 15Q228 15 252 23T300 43T344 73T382 108L465 483H495L388 0H358L375 76Q358 59 338 44T294 16T247 -4T197 -12Q167 -12 142 -5T99 16T70 52T59 104Q59 112 61 124T65 146L139 483H169ZM358 556L215 700H260L388 556H358Z"  />
<glyph unicode="&#xFA;" horiz-adv-x="528" d="M169 483L94 145Q92 137 90 127T88 107Q88 58 120 37T203 15Q228 15 252 23T300 43T344 73T382 108L465 483H495L388 0H358L375 76Q358 59 338 44T294 16T247 -4T197 -12Q167 -12 142 -5T99 16T70 52T59 104Q59 112 61 124T65 146L139 483H169ZM312 556H280L472 700H519L312 556Z"  />
<glyph unicode="&#xFB;" horiz-adv-x="528" d="M169 483L94 145Q92 137 90 127T88 107Q88 58 120 37T203 15Q228 15 252 23T300 43T344 73T382 108L465 483H495L388 0H358L375 76Q358 59 338 44T294 16T247 -4T197 -12Q167 -12 142 -5T99 16T70 52T59 104Q59 112 61 124T65 146L139 483H169ZM424 556L359 676L245 556H215L345 700H381L450 556H424Z"  />
<glyph unicode="&#xFC;" horiz-adv-x="528" d="M169 483L94 145Q92 137 90 127T88 107Q88 58 120 37T203 15Q228 15 252 23T300 43T344 73T382 108L465 483H495L388 0H358L375 76Q358 59 338 44T294 16T247 -4T197 -12Q167 -12 142 -5T99 16T70 52T59 104Q59 112 61 124T65 146L139 483H169ZM475 601Q475 588 466 579T444 570Q433 570 426 577T419 595Q419 608 428 617T450 626Q461 626 468 619T475 601ZM273 601Q273 588 264 579T242 570Q231 570 224 577T217 595Q217 608 226 617T248 626Q259 626 266 619T273 601Z"  />
<glyph unicode="&#xFD;" horiz-adv-x="528" d="M309 556H277L469 700H516L309 556ZM174 -196Q98 -196 52 -177T-27 -115L-1 -92Q23 -132 67 -150T174 -169Q251 -169 295 -124T357 -4L374 74Q336 39 292 14T197 -12Q171 -12 146 -6T102 13T72 48T60 102Q60 109 60 119T65 146L139 483H169L94 145Q89 120 89 105Q89 79 98 62T124 34T160 19T203 15Q228 15 252 23T300 43T344 73T382 108L465 483H495L387 -4Q375 -59 354 -95T304 -154T243 -186T174 -196Z"  />
<glyph unicode="&#xFE;" horiz-adv-x="562" d="M261 -12Q198 -12 152 16T81 87L21 -184H-9L179 667H209L152 406Q181 445 225 470T324 495Q366 495 400 482T460 443T500 380T514 297Q514 234 496 178T444 80T364 13T261 -12ZM261 15Q311 15 351 39T420 102T464 191T480 293Q480 374 437 421T322 468Q294 468 268 460T218 437T175 404T142 364L87 113Q106 73 151 44T261 15Z"  />
<glyph unicode="&#xFF;" horiz-adv-x="528" d="M466 601Q466 588 457 579T435 570Q424 570 417 577T410 595Q410 608 419 617T441 626Q452 626 459 619T466 601ZM264 601Q264 588 255 579T233 570Q222 570 215 577T208 595Q208 608 217 617T239 626Q250 626 257 619T264 601ZM174 -196Q98 -196 52 -177T-27 -115L-1 -92Q23 -132 67 -150T174 -169Q251 -169 295 -124T357 -4L374 74Q336 39 292 14T197 -12Q171 -12 146 -6T102 13T72 48T60 102Q60 109 60 119T65 146L139 483H169L94 145Q89 120 89 105Q89 79 98 62T124 34T160 19T203 15Q228 15 252 23T300 43T344 73T382 108L465 483H495L387 -4Q375 -59 354 -95T304 -154T243 -186T174 -196Z"  />
<glyph unicode="&#x152;" horiz-adv-x="1124" d="M597 0L624 125Q580 62 513 25T355 -12Q291 -12 239 9T151 68T94 158T74 274Q74 363 104 437T185 564T305 647T448 677Q490 677 529 668T603 636T664 578T705 488L744 667H1152L1146 637H770L708 358H1077L1070 328H701L635 30H1011L1005 0H597ZM691 427Q678 533 612 590T441 647Q375 647 315 619T210 542T137 424T110 274Q110 215 128 168T180 87T259 36T361 18Q402 18 442 29T518 62T584 115T638 186L691 427Z"  />
<glyph unicode="&#x153;" horiz-adv-x="988" d="M509 232Q508 228 508 219T507 200Q507 161 519 128T554 69T613 30T695 15Q736 15 775 30T846 72L861 50Q828 22 784 5T695 -12Q642 -12 603 5T537 46T496 99T481 152Q470 130 453 102T408 49T343 6T254 -12Q209 -12 172 2T108 44T66 110T51 198Q51 256 70 309T124 404T206 470T310 495Q361 495 398 477T458 434T493 380T505 331Q516 353 535 381T582 434T649 477T736 495Q781 495 817 480T880 438T921 373T935 288Q935 274 933 259T928 232H509ZM903 259Q904 264 904 270T905 285Q905 324 894 357T860 415T806 454T731 468Q686 468 648 449T582 398T535 330T512 259H903ZM479 285Q479 334 465 368T428 425T374 457T310 468Q263 468 222 446T151 387T103 300T85 198Q85 116 128 66T254 15Q302 15 343 37T414 96T461 182T479 285Z"  />
<glyph unicode="&#x160;" horiz-adv-x="575" d="M370 728L301 872H327L391 752L506 872H536L406 728H370ZM273 -12Q232 -12 194 -3T125 21T69 58T31 103L60 124Q95 74 149 46T276 18Q326 18 361 33T420 73T453 126T464 184Q464 225 439 251T377 298T296 335T215 374T153 426T128 502Q128 539 145 571T192 627T260 664T343 678Q418 678 476 650T562 575L533 554Q503 602 452 625T343 648Q305 648 273 636T216 603T178 557T164 502Q164 465 189 440T251 396T332 359T413 318T475 263T500 184Q500 149 486 114T444 51T373 6T273 -12Z"  />
<glyph unicode="&#x161;" horiz-adv-x="454" d="M197 -12Q68 -12 13 72L40 92Q58 61 97 38T194 15Q228 15 255 24T301 50T330 87T340 130Q340 159 321 178T272 212T209 240T146 269T98 306T78 358Q78 386 89 411T122 455T175 484T247 495Q310 495 354 471T415 416L390 397Q382 412 368 425T334 447T291 462T243 468Q182 468 146 439T109 368Q109 341 128 323T177 290T240 264T303 235T351 196T371 139Q371 110 360 83T326 35T272 1T197 -12ZM274 556L205 700H231L295 580L410 700H440L310 556H274Z"  />
<glyph unicode="&#x178;" horiz-adv-x="610" d="M553 767Q553 754 544 745T522 736Q511 736 504 743T497 761Q497 774 506 783T528 792Q539 792 546 785T553 767ZM351 767Q351 754 342 745T320 736Q309 736 302 743T295 761Q295 774 304 783T326 792Q337 792 344 785T351 767ZM235 0L299 289L114 667H151L318 321L637 667H682L331 289L267 0H235Z"  />
<glyph unicode="&#x17D;" horiz-adv-x="578" d="M379 728L310 872H336L400 752L515 872H545L415 728H379ZM-1 0L5 30L563 637H140L146 667H611L605 637L46 30H477L471 0H-1Z"  />
<glyph unicode="&#x17E;" horiz-adv-x="466" d="M6 0L11 27L410 456H107L113 483H455L449 456L48 27H357L352 0H6ZM278 556L209 700H235L299 580L414 700H444L314 556H278Z"  />
<glyph unicode="&#x192;" horiz-adv-x="412" d="M-14 -161L81 267H1V297H87L140 534Q155 602 189 639T280 677Q306 677 326 670T367 642L345 620Q333 635 316 641T282 647Q238 647 211 617T172 534L119 297H281V267H113L18 -161H-14Z"  />
<glyph unicode="&#x2C6;" horiz-adv-x="235" d="M278 556L213 676L99 556H69L199 700H235L304 556H278Z"  />
<glyph unicode="&#x2DC;" horiz-adv-x="301" d="M289 554Q260 554 247 571T226 610T207 649T173 667Q148 667 129 642T97 560H70Q76 587 85 611T108 654T140 683T179 694Q208 694 221 677T242 638T261 599T295 581Q320 581 339 606T372 688H399Q393 661 384 637T360 594T328 565T289 554Z"  />
<glyph unicode="&#x2013;" horiz-adv-x="593" d="M26 227L32 257H565L559 227H26Z"  />
<glyph unicode="&#x2014;" horiz-adv-x="833" d="M26 227L32 257H805L799 227H26Z"  />
<glyph unicode="&#x2018;" horiz-adv-x="208" d="M124 547Q124 566 131 585T152 622T180 653T213 677L231 657Q203 642 184 619T159 573H165Q176 573 183 565T191 545Q191 530 181 520T156 509Q142 509 133 518T124 547Z"  />
<glyph unicode="&#x2019;" horiz-adv-x="208" d="M227 639Q227 620 220 601T199 564T170 533T138 509L120 529Q148 544 167 567T192 613H186Q175 613 168 621T160 641Q160 656 170 666T195 677Q209 677 218 668T227 639Z"  />
<glyph unicode="&#x201A;" horiz-adv-x="208" d="M89 18Q89 -1 82 -20T61 -57T32 -88T0 -112L-18 -92Q10 -77 29 -54T54 -8H48Q37 -8 30 0T22 20Q22 35 32 45T57 56Q71 56 80 47T89 18Z"  />
<glyph unicode="&#x201C;" horiz-adv-x="331" d="M258 547Q258 566 265 585T286 622T314 653T347 677L365 657Q337 642 318 619T293 573H299Q310 573 317 565T325 545Q325 530 315 520T290 509Q276 509 267 518T258 547ZM136 547Q136 566 143 585T164 622T192 653T225 677L243 657Q215 642 196 619T171 573H177Q188 573 195 565T203 545Q203 530 193 520T168 509Q154 509 145 518T136 547Z"  />
<glyph unicode="&#x201D;" horiz-adv-x="331" d="M227 639Q227 620 220 601T199 564T170 533T138 509L120 529Q148 544 167 567T192 613H186Q175 613 168 621T160 641Q160 656 170 666T195 677Q209 677 218 668T227 639ZM349 639Q349 620 342 601T321 564T292 533T260 509L242 529Q270 544 289 567T314 613H308Q297 613 290 621T282 641Q282 656 292 666T317 677Q331 677 340 668T349 639Z"  />
<glyph unicode="&#x201E;" horiz-adv-x="331" d="M89 18Q89 -1 82 -20T61 -57T32 -88T0 -112L-18 -92Q10 -77 29 -54T54 -8H48Q37 -8 30 0T22 20Q22 35 32 45T57 56Q71 56 80 47T89 18ZM211 18Q211 -1 204 -20T183 -57T154 -88T122 -112L104 -92Q132 -77 151 -54T176 -8H170Q159 -8 152 0T144 20Q144 35 154 45T179 56Q193 56 202 47T211 18Z"  />
<glyph unicode="&#x2020;" horiz-adv-x="251" d="M203 543L159 327H128L180 543L90 539L96 566L184 563L206 677H237L207 563L297 566L291 539L203 543Z"  />
<glyph unicode="&#x2021;" horiz-adv-x="251" d="M291 539L203 543L152 314L242 318L236 291L148 294L126 180H95L125 294L35 291L41 318L129 314L180 543L90 539L96 566L184 563L206 677H237L207 563L297 566L291 539Z"  />
<glyph unicode="&#x2022;" horiz-adv-x="358" d="M278 252Q278 230 269 211T245 177T210 154T168 145Q130 145 105 170T80 233Q80 255 89 274T113 308T148 331T190 340Q228 340 253 315T278 252Z"  />
<glyph unicode="&#x2026;" horiz-adv-x="624" d="M52 -9Q39 -9 31 -1T22 21Q22 36 32 46T58 56Q71 56 79 48T88 26Q88 11 78 1T52 -9ZM260 -9Q247 -9 239 -1T230 21Q230 36 240 46T266 56Q279 56 287 48T296 26Q296 11 286 1T260 -9ZM468 -9Q455 -9 447 -1T438 21Q438 36 448 46T474 56Q487 56 495 48T504 26Q504 11 494 1T468 -9Z"  />
<glyph unicode="&#x2030;" horiz-adv-x="1051" d="M73 0L646 667H683L109 0H73ZM483 -12Q453 -12 428 -3T384 24T354 66T343 120Q343 163 357 199T396 260T451 300T515 314Q545 314 570 305T614 278T644 236T655 182Q655 138 641 103T602 42T547 2T483 -12ZM484 15Q511 15 536 27T580 62T610 114T622 179Q622 226 592 256T514 287Q487 287 462 275T418 240T388 188T376 123Q376 76 406 46T484 15ZM232 351Q202 351 177 360T133 387T103 429T92 483Q92 526 106 562T145 623T200 663T264 677Q294 677 319 668T363 641T393 599T404 545Q404 501 390 466T351 405T296 365T232 351ZM233 378Q260 378 285 390T329 425T359 477T371 542Q371 589 341 619T263 650Q236 650 211 638T167 603T137 551T125 486Q125 439 155 409T233 378ZM825 -12Q795 -12 770 -3T726 24T696 66T685 120Q685 163 699 199T738 260T793 300T857 314Q887 314 912 305T956 278T986 236T997 182Q997 138 983 103T944 42T889 2T825 -12ZM826 15Q853 15 878 27T922 62T952 114T964 179Q964 226 934 256T856 287Q829 287 804 275T760 240T730 188T718 123Q718 76 748 46T826 15Z"  />
<glyph unicode="&#x2039;" horiz-adv-x="259" d="M149 63L29 243L229 420H272L68 238L184 63H149Z"  />
<glyph unicode="&#x203A;" horiz-adv-x="259" d="M112 420L232 240L32 63H-11L193 245L77 420H112Z"  />
<glyph unicode="&#x20AC;" horiz-adv-x="684" d="M386 -12Q325 -12 274 6T184 58T123 140T96 247H39L46 277H95Q95 337 110 391H71L78 421H119Q140 481 175 528T256 609T354 660T459 678Q537 678 603 647T711 549L681 530Q642 595 583 621T456 648Q410 648 365 633T280 588T208 517T156 421H517L510 391H146Q139 365 135 337T131 277H485L478 247H132Q136 194 155 152T208 80T286 34T388 18Q439 18 487 35T586 94L606 71Q557 29 501 9T386 -12Z"  />
<glyph unicode="&#x2122;" horiz-adv-x="454" d="M436 447L476 629L361 447H353L318 629L278 447H250L298 667H341L370 507L469 667H512L464 447H436ZM195 641L152 447H124L167 641H105L110 667H262L257 641H195Z"  />


</font>
</defs>
</svg>
